<svg xmlns="http://www.w3.org/2000/svg" viewBox="0 0 74.37 65.05"><g id="ae346df4-cbe9-48dc-a45d-eab23b7fe655" data-name="Layer 2"><g id="afeb1a57-18e4-4d26-965c-7ade10225ab5" data-name="Layer 1"><path d="M46.54,60c.43-.13.87-.23,1.28-.39,1.12-.45,2.24-.9,3.34-1.39.84-.38.84-.56.3-1.29a5.73,5.73,0,0,1-.76-1.42c-.46-1.37.71-4.15,2-4.81a3.47,3.47,0,0,1,1,4.13c-.3.62-.67,1.21-1,1.81a2.39,2.39,0,0,0-.27.83,26.21,26.21,0,0,0,4.87-3.14,9.47,9.47,0,0,0-.73-.77,3.5,3.5,0,0,1-1.23-3.94,15.81,15.81,0,0,1,.73-2c.2-.49.47-.46.85-.13A3.84,3.84,0,0,1,58,52c-.2.61-.39,1.23-.58,1.85l.18.1a3.53,3.53,0,0,0,.48-.36c1-1.05,2.06-2.12,3.1-3.18.41-.41.32-.72-.16-1-.32-.19-.66-.36-1-.58a3.16,3.16,0,0,1-1.37-2.5,16,16,0,0,1,.24-2.68c.11-.67.28-.69.89-.34a3.9,3.9,0,0,1,2,4.29c-.08.59-.12,1.18-.17,1.77l.23.09c.22-.29.47-.58.67-.89.7-1.11,1.39-2.23,2.08-3.34.28-.46.13-.74-.35-.9A11.58,11.58,0,0,1,63,43.84a3.79,3.79,0,0,1-2-3.16,3.55,3.55,0,0,1,.05-2.21,3.84,3.84,0,0,1,3.45,3.21c.12.59.16,1.2.24,1.8,0,.23.11.44.16.66l.19.07c.3-.69.63-1.36.89-2.07s.59-1.72.84-2.59c.18-.61,0-.8-.58-.89-2.61-.38-3.6-1.28-4.25-3.87-.32-1.3-.22-1.38,1.08-1.12a4.12,4.12,0,0,1,3.19,3.11c.19.55.41,1.09.61,1.64l.24,0c.11-.56.26-1.11.33-1.68.13-1.07.23-2.15.34-3.23.06-.58-.26-.8-.75-.71-2.45.47-3.85-.87-4.92-2.8a12.6,12.6,0,0,1-.55-1.24,4,4,0,0,1,4.63,1.55c.33.48.61,1,.93,1.49.14.22.32.41.48.62l.18,0c0-.57,0-1.14,0-1.71-.09-1-.21-2.05-.36-3.07-.12-.82-.26-.84-1.09-.67a6.53,6.53,0,0,1-2.27.18c-1.66-.29-2.67-1.53-3.58-2.83-.24-.35-.05-.46.28-.56,2.06-.65,3.66-.13,5.23,1.7a13.09,13.09,0,0,0,1,1l.2-.11c-.08-.37-.14-.74-.25-1.1-.38-1.19-.76-2.38-1.17-3.56-.24-.65-.5-.78-1-.44-2.19,1.41-4.08.62-5.86-.78-1.22-1-.94-1,.12-1.48a3.51,3.51,0,0,1,3.26,0c.61.32,1.18.71,1.77,1.06l1,.63.16-.13c-.18-.38-.33-.78-.54-1.14-.6-1-1.21-2-1.84-3-.48-.76-.62-.71-1.37-.18a6.46,6.46,0,0,1-2,1c-1.26.36-2.42-.22-3.55-.71-.41-.18-.77-.45-1.16-.67a3.74,3.74,0,0,1,3.8-1.55c.87.21,1.69.58,2.54.87.26.09.53.16.8.24l.1-.16c-.29-.37-.57-.75-.89-1.1-.82-.89-1.63-1.78-2.49-2.64-.47-.47-.73-.45-1.1.12-1.54,2.43-4.5,2-6.6,1.1,0,0-.08-.09-.17-.19a3.78,3.78,0,0,1,3-2.05,23.12,23.12,0,0,1,3,.29l.9.09.09-.19c-.61-.48-1.2-1-1.83-1.44s-1.4-1-2.12-1.44S53,7.25,52.59,8c-1.1,2-3.85,2.09-5.79,1.2a3.29,3.29,0,0,1,2.49-2.06,27.34,27.34,0,0,1,3.39,0c0-.06-.12-.19-.23-.24-.94-.5-1.86-1-2.84-1.44a2.84,2.84,0,0,0-1.45-.08c-.7.11-1.37.4-2.06.54a3.39,3.39,0,0,1-3.44-1.55s0-.09.05-.11a4.71,4.71,0,0,1,5.82.2A8.58,8.58,0,0,0,50.6,5.55l.16-.23-1-1.11A4.3,4.3,0,0,1,48.2.83,3.18,3.18,0,0,1,48.26.4,3.31,3.31,0,0,1,48.4,0a.75.75,0,0,1,.26,0,7,7,0,0,1,3.28,2.88,1.83,1.83,0,0,1-.38,2c-.47.67-.46.69.26,1.1,1.07.61,2.12,1.25,3.17,1.87a1.42,1.42,0,0,0,.29.1l.17-.1c-.22-.38-.42-.78-.66-1.15A6.29,6.29,0,0,1,53.38,3a8.33,8.33,0,0,1,.42-1.81c.09-.36.33-.48.65-.22a9.67,9.67,0,0,1,3.07,4,2.27,2.27,0,0,1-.78,2.49c-.93.94-.91.92.11,1.76s2,1.71,3,2.57a1.15,1.15,0,0,0,.55.3c-.06-.24-.11-.48-.18-.72-.29-1-.63-1.9-.84-2.88a4,4,0,0,1,1.27-3.68,4.28,4.28,0,0,1,.75.85A30.59,30.59,0,0,1,62.93,8.9a2.38,2.38,0,0,1-1.17,2.94c-1.11.7-1.09.69-.28,1.73s1.6,2.14,2.4,3.2a.74.74,0,0,0,.46.3c-.08-.72-.15-1.43-.24-2.14a4.91,4.91,0,0,1,1.54-4.61c.31-.27.56-.31.75.07A9.63,9.63,0,0,1,67.48,15a2.36,2.36,0,0,1-1.79,2.18c-1.27.47-1.24.45-.63,1.65s1,2.22,1.53,3.34c.1.22.2.44.29.66l.17,0c0-.35.12-.71.15-1.06.12-1.56.28-3.11,1.42-4.32a8.88,8.88,0,0,1,1.27-1c.33-.24.57-.09.66.26a8.69,8.69,0,0,1,0,4.95,2.57,2.57,0,0,1-2.32,1.56l-.56.07c-.42.06-.56.27-.43.7.21.66.39,1.33.54,2s.31,1.63.46,2.45a.88.88,0,0,0,.26.51l.36-.86c.45-1,.83-2.09,1.37-3.07a4,4,0,0,1,2.33-1.71c.45-.17.7,0,.71.45a9.25,9.25,0,0,1-1,4.6A2.51,2.51,0,0,1,69.7,29.5c-1.28,0-1.26-.05-1.25,1.24s0,2.74-.07,4.12c0,.07,0,.15.07.43.28-.39.45-.65.64-.9a30.93,30.93,0,0,1,2.18-2.87,3.78,3.78,0,0,1,3.1-1,2.66,2.66,0,0,1-.06.78,34.93,34.93,0,0,1-1.59,3.59,2.5,2.5,0,0,1-3,1.17c-1.34-.34-1.33-.33-1.58,1s-.6,2.84-.94,4.4c.31-.29.55-.52.79-.73.86-.77,1.67-1.58,2.58-2.27a4.27,4.27,0,0,1,3-.63c.42,0,.55.22.38.56A11.33,11.33,0,0,1,73,39.83a14.77,14.77,0,0,1-1.5,1.92,2.74,2.74,0,0,1-3.54.54L67.41,42c-.34-.17-.54-.06-.7.27-.68,1.49-1.39,3-2.08,4.47,0,.09,0,.19-.11.46.72-.5,1.3-.88,1.86-1.29a6.9,6.9,0,0,1,3-1.29A4.74,4.74,0,0,1,72,45a7.05,7.05,0,0,1-.77,1.1A27.17,27.17,0,0,1,68.9,48.2,2.77,2.77,0,0,1,65,48.09c-.8-.66-.77-.64-1.37.18-.83,1.12-1.7,2.21-2.55,3.31-.09.12-.19.23-.27.35s0,.11-.05.3c.52-.21,1-.39,1.43-.59a7.86,7.86,0,0,1,3.86-.92,5,5,0,0,1,2.43.93,8.76,8.76,0,0,1-1.1,1,29.41,29.41,0,0,1-2.85,1.58,2.69,2.69,0,0,1-3.43-.82c-.8-.93-.78-.91-1.71-.07s-2.1,1.78-3.15,2.66l-.3.28.05.17c.66-.12,1.32-.23,2-.37a6.18,6.18,0,0,1,3.41,0,17.46,17.46,0,0,1,2.19,1.13l0,.26a7.87,7.87,0,0,1-1.21.72,33.34,33.34,0,0,1-3.22,1A2.65,2.65,0,0,1,56,57.68c-.56-1.06-.55-1-1.57-.45s-2.37,1.3-3.56,1.94l-.55.31,0,.17c.74,0,1.49,0,2.22,0a13.47,13.47,0,0,1,2.53.4,4.18,4.18,0,0,1,2.42,2,4.43,4.43,0,0,1-1,.43c-1.3.17-2.61.37-3.92.41a2.51,2.51,0,0,1-2.54-2,2,2,0,0,0-.22-.71c-.11-.15-.41-.32-.56-.27-1,.32-2,.74-3,1s-2.07.47-3.12.77a36.21,36.21,0,0,1,7.26,3.19l-.06.16a10.28,10.28,0,0,0-1.28-.37,7.37,7.37,0,0,0-1.15,0c-.14,0-.32,0-.4,0a12.7,12.7,0,0,0-5.33-2.23,12.46,12.46,0,0,0-2.73-.27c-2.16,0-4.33,0-6.47.15a12.6,12.6,0,0,0-5.63,2,1.89,1.89,0,0,1-1.37.32,9.36,9.36,0,0,0-2,.33,33.31,33.31,0,0,1,7.19-3.31c-.52-.12-1.05-.21-1.56-.36-1.41-.42-2.83-.84-4.23-1.3-.73-.23-.84-.2-1,.57C24,62.29,23.13,63,21.33,62.92a29.15,29.15,0,0,1-3.35-.4,5.23,5.23,0,0,1-1.11-.43c1.78-2.81,4.56-2.41,7.19-2.44l0-.16-.49-.28c-1.33-.74-2.67-1.45-4-2.22-.49-.29-.75-.24-1,.25a4.9,4.9,0,0,1-.53.92,2.31,2.31,0,0,1-2.39,1.07,34.47,34.47,0,0,1-4.21-1.37c-.74-.29-.7-.52-.06-1a5.38,5.38,0,0,1,4.36-.9c.61.09,1.22.27,1.84.39.25.05.51.05.92.09-.25-.28-.36-.48-.52-.57A18.37,18.37,0,0,1,14.7,53c-.56-.51-.7-.5-1.19.1-1.22,1.48-2.33,1.77-4,.92a34.13,34.13,0,0,1-3-1.84A2.86,2.86,0,0,1,6,51.63a4.44,4.44,0,0,1,3.78-.81,28.91,28.91,0,0,1,3,1.07l.8.27.09-.13-.37-.48c-.88-1.16-1.79-2.3-2.64-3.48-.31-.44-.58-.55-1-.21a9.67,9.67,0,0,1-.91.67,2.43,2.43,0,0,1-2.56.08,11.75,11.75,0,0,1-3.42-3A4,4,0,0,1,2.46,45,4.13,4.13,0,0,1,5,44.6a6.61,6.61,0,0,1,3,1.29L9.75,47.1l.13-.1c-.09-.19-.17-.38-.25-.57C9,45.13,8.4,43.84,7.82,42.52c-.31-.68-.39-.73-1.07-.39-1.87.95-3,.76-4.28-.88a22.31,22.31,0,0,1-1.81-2.7c-.35-.59-.21-.75.48-.8a5.44,5.44,0,0,1,4.52,2,11.69,11.69,0,0,0,1.65,1.47c-.11-.4-.24-.8-.33-1.21-.27-1.24-.54-2.47-.77-3.72-.08-.41-.22-.62-.67-.48l-.91.22A2.47,2.47,0,0,1,1.79,35a32.64,32.64,0,0,1-1.7-3.82c-.23-.59,0-.74.61-.68a5,5,0,0,1,3.72,2.4c.38.58.71,1.18,1.07,1.77.12.18.26.34.5.66a2.74,2.74,0,0,0,0-.53,20.3,20.3,0,0,1,0-4.61c0-.53-.17-.75-.69-.69-2.64.29-3.43-1-3.8-3-.19-1-.33-2-.48-3a2,2,0,0,1,2.15.43,5.88,5.88,0,0,1,2.1,3.2c.19.59.4,1.19.6,1.78l.19,0c.07-.35.13-.71.21-1.07.28-1.26.54-2.53.89-3.77.15-.54,0-.74-.5-.82-.17,0-.34,0-.5-.05a2.77,2.77,0,0,1-2.42-1.81A6.08,6.08,0,0,1,3.63,18c.1-.57.22-1.13.35-1.79,3.13,1.3,3.08,4.05,3.37,6.63h.16l.23-.46C8.37,21,9,19.61,9.65,18.28c.26-.52.15-.71-.35-.94A7.67,7.67,0,0,1,7.41,16.2,2.27,2.27,0,0,1,7,13.94a25.37,25.37,0,0,1,.92-3.31c.22-.66.47-.67,1-.2,1.45,1.31,1.63,3,1.41,4.78-.08.62-.15,1.23-.22,1.85l.15.07c.11-.12.23-.24.33-.37.92-1.21,1.82-2.44,2.77-3.62.36-.45.32-.72-.14-1l-.39-.21a2.47,2.47,0,0,1-1.18-3.42,33.72,33.72,0,0,1,1.67-3.21,2.83,2.83,0,0,1,.55-.54c2.27,2.4,1,4.86.16,7.3l.17.06.45-.37c1.15-1,2.28-2,3.45-3,.42-.34.48-.6.07-1a6.06,6.06,0,0,1-.64-.6,2.28,2.28,0,0,1-.44-2.73,11.69,11.69,0,0,1,2.76-3.46c.42-.36.65-.27.87.23a4.75,4.75,0,0,1-.47,4.5c-.4.69-.83,1.37-1.25,2.06l.11.13a4,4,0,0,0,.47-.22L22.69,6c.61-.34.63-.42.22-1-.81-1.16-.8-2,.2-3A18.5,18.5,0,0,1,25.35.22c.56-.39.76-.25.85.41A3.91,3.91,0,0,1,25,3.88,15.9,15.9,0,0,0,23.71,5.4c.82-.29,1.71-.32,2.33-1.06a3.3,3.3,0,0,1,3.39-1,5.29,5.29,0,0,1,2.35.9,3.33,3.33,0,0,1-3.43,1.63,12.86,12.86,0,0,1-1.87-.5,2.38,2.38,0,0,0-2.05.18c-.74.4-1.48.77-2.22,1.16a4.4,4.4,0,0,0-.45.3l0,.18L23,7.13c1.19-.09,2.42-.28,3.43.56a13.19,13.19,0,0,1,1.3,1.39l-.08.24c-.51.11-1,.28-1.54.34A4,4,0,0,1,22.73,9a7.09,7.09,0,0,1-.95-1.15c-.28-.37-.55-.64-1-.3l-4,2.91s-.06.1-.18.35c.84-.15,1.56-.27,2.27-.41a4.13,4.13,0,0,1,4.72,2.07,4,4,0,0,1-2.14.73,4.13,4.13,0,0,1-4-.94c-.3-.29-.51-.68-.83-.94a.79.79,0,0,0-.72-.07c-1.23,1.24-2.42,2.52-3.62,3.79l.15.25a10.15,10.15,0,0,0,1.1-.37,7.09,7.09,0,0,1,3.19-.81,4.46,4.46,0,0,1,2.81,1.4c0,.1,0,.16,0,.18a5.6,5.6,0,0,1-5.76,1,11.38,11.38,0,0,1-1.2-.9c-.31-.23-.59-.22-.79.12-.84,1.42-1.66,2.84-2.48,4.26a1.73,1.73,0,0,0-.07.42L10.28,20A19.75,19.75,0,0,1,13,18.63a4,4,0,0,1,3.34.77.58.58,0,0,1,0,.12A5.07,5.07,0,0,1,10,21.36c-1-.56-1.13-.54-1.48.51-.46,1.35-.86,2.73-1.28,4.1a2.17,2.17,0,0,0,0,.5c.44-.41.76-.71,1.09-1a17.18,17.18,0,0,1,1.85-1.58,4,4,0,0,1,3.57-.15.54.54,0,0,1,.13.48c-1.25,1.88-3.24,3.69-5.78,2.72-.88-.34-1.07-.21-1.18.74-.15,1.34-.25,2.68-.37,4a1.08,1.08,0,0,0,.19.67c.2-.27.4-.53.59-.8a19.63,19.63,0,0,1,1.53-2.06,4,4,0,0,1,3.81-.9,1,1,0,0,1,0,.34,6.74,6.74,0,0,1-2.58,3.45,3.54,3.54,0,0,1-2.61.37c-.7-.11-1,.07-.93.7.17,1.55.4,3.1.62,4.65,0,.09.09.17.21.38.17-.37.31-.64.42-.92.18-.46.33-.94.51-1.41a4.1,4.1,0,0,1,3.71-2.66c.31,0,.5.08.45.41-.28,2.08-1.35,4.7-4.2,4.72-.79,0-1,.25-.74,1,.46,1.38,1,2.73,1.49,4.1a.84.84,0,0,0,.4.44c.08-.38.18-.75.25-1.14s0-.54.06-.81C10.09,40,11,39,13.29,38.41a1.61,1.61,0,0,1,.19.6,20,20,0,0,1-.6,3.3,3.16,3.16,0,0,1-2.36,1.88c-1,.31-1.11.4-.57,1.31.72,1.22,1.51,2.39,2.27,3.59.09.13.17.28.26.41l.25-.11c0-.36-.05-.72-.05-1.07a17,17,0,0,1,.08-2.86c.21-1.18,1.2-1.8,2.2-2.33.08-.05.4.12.44.24.61,2.06.75,4.75-1.8,5.92-.78.35-.82.6-.26,1.2,1,1,2,2.06,3,3.09a4.17,4.17,0,0,0,.47.36l.17-.09c-.11-.38-.2-.77-.33-1.14-.36-1.09-.85-2.22-.36-3.35a9.56,9.56,0,0,1,1.44-2,.55.55,0,0,1,.51,0,4.76,4.76,0,0,1,0,5.84,6.59,6.59,0,0,0-.76.73.62.62,0,0,0,0,.61c1.44,1,2.9,1.95,4.36,2.92a1.07,1.07,0,0,0,.23,0c-.12-.27-.2-.53-.33-.76-.33-.63-.72-1.23-1-1.87a3.54,3.54,0,0,1,.66-3.91.61.61,0,0,1,.55-.1,5.1,5.1,0,0,1,1.57,5.09,8.17,8.17,0,0,1-.8,1.27c-.22.33-.32.66.15.85q2.27,1,4.55,1.87a2.16,2.16,0,0,0,.6,0c-.39-.45-.68-.82-1-1.16-.82-.86-1.67-1.73-1.65-3a8.31,8.31,0,0,1,.49-2.17.62.62,0,0,1,.53-.14,5.48,5.48,0,0,1,2.63,4.36,5.51,5.51,0,0,1-.45,1.48c-.29.72-.25.9.47,1.09a29.37,29.37,0,0,0,9.64,1c2.14-.18,4.27-.58,6.39-.94.94-.15,1-.35.59-1.21a3.45,3.45,0,0,1,.51-4,21.94,21.94,0,0,1,1.58-1.62c.32-.31.57-.28.79.19a3.72,3.72,0,0,1-.74,4.45c-.49.53-1,1.07-1.44,1.61ZM22.15,53.83H22l.27,3.77h.11ZM52.37,54,52.25,54,52,57.61h.1ZM55.71,8.11h.09l-.25-3.36h-.12ZM64.36,36l0,0L66.15,38h0ZM19,4.77h-.11L18.6,8.15h.12ZM57.77,15.54v.05h2.85v-.05Zm-44,0v.06H16.6v-.06Zm-.31-7.61h-.08v2.37h.08Z" style="fill:#fff"/><path d="M47.12,25.73l-.68,1.59c.58.21,1,.07,1.12-.51a2.63,2.63,0,0,1,.15-.35c.37-.86.37-.86,1.41-.73l-.67,1.6c.58.18,1,.09,1.14-.52,0-.12.11-.23.14-.35.19-.72.66-.95,1.43-.72l-.68,1.58c.62.22,1,.07,1.17-.58,0-.1.1-.19.13-.29.18-.74.66-.93,1.43-.72l-.7,1.6c.59.18,1,.09,1.17-.54a7.83,7.83,0,0,1,.56-1.17l.19.07v21H20v-23c.52.49,1,.91,1.39,1.31s.9.84,1.45.71l.54,1h.17c.22-.8.59-1.34,1.52-1l-.68,1.57c.55.18.95.12,1.11-.5a2.11,2.11,0,0,1,.16-.34c.38-.89.38-.89,1.43-.76l-.69,1.59c.51.18.92.16,1.1-.46a2.55,2.55,0,0,1,.14-.35c.38-.89.38-.89,1.46-.78l-.7,1.62c.56.15,1,.1,1.12-.53,0-.12.11-.22.14-.34.2-.72.64-1,1.42-.73l-.67,1.6c.54.13.95.12,1.11-.52a2.28,2.28,0,0,1,.17-.4c.39-.83.39-.83,1.41-.69l-.69,1.6c.52.15.94.15,1.11-.48,0-.14.13-.26.17-.4.18-.76.66-.95,1.42-.7l-.7,1.59c.58.16,1,.07,1.14-.56a2.72,2.72,0,0,1,.16-.35c.37-.84.37-.84,1.41-.7l-.69,1.61c.55.16,1,.09,1.12-.53a1.69,1.69,0,0,1,.12-.28c.39-.9.39-.9,1.46-.82l-.69,1.6c.57.22,1,.1,1.13-.52a2.55,2.55,0,0,1,.14-.35c.37-.85.37-.85,1.42-.71l-.69,1.61c.58.17,1,.07,1.13-.54a1.76,1.76,0,0,1,.15-.35c.38-.85.38-.85,1.41-.72l-.68,1.6c.58.18,1,.08,1.12-.53,0-.12.12-.22.15-.34.19-.73.65-.95,1.42-.72l-.68,1.58c.58.21,1,.07,1.12-.51,0-.12.12-.23.15-.35C45.87,25.71,46.35,25.52,47.12,25.73Zm-26.69,17H54V27.88H20.43Zm31.62,3.51h.82a.89.89,0,0,0,1-.85c.14-1.1-.07-1.75-.62-1.93a.7.7,0,0,0-.25-.05c-.6,0-1.21,0-1.82,0a.81.81,0,0,0-.86.88C50.28,45.82,50.09,46.34,52.05,46.24Zm-22.14,0h.82a.88.88,0,0,0,1-.85c.15-1.08-.07-1.75-.61-1.93a.65.65,0,0,0-.19,0,13.31,13.31,0,0,0-2,0,1,1,0,0,0-.7.65c-.15,1.71-.2,2.25,1.64,2.13Zm7.69-1v.2a3,3,0,0,1-.52.13c-.54,0-1.08,0-1.63,0s-.6.16-.4.63h2.31a.78.78,0,0,0,.86-.85.8.8,0,0,0-.86-.87c-.48,0-1,0-1.44,0-.15,0-.29-.15-.44-.22.15-.08.29-.21.44-.21.7,0,1.41,0,2.15,0V43.4H35.69a.8.8,0,0,0-.86.86.81.81,0,0,0,.84.89c.46,0,.92,0,1.38,0A5.3,5.3,0,0,1,37.6,45.26Zm-10.77.11c.22-.06.46-.06.52-.16a2.29,2.29,0,0,0,.44-1.07,1,1,0,0,0-.64-.7c-.95-.08-1.91,0-2.87,0v2.78h.65V44.05c.67,0,1.25,0,1.84,0,.14,0,.28.21.42.31-.16.1-.3.27-.46.29-.43,0-.86,0-1.29,0,.63.58.8,1.73,2.07,1.51ZM21,46.18l.07-.87c.7,0,1.37,0,2,0a.83.83,0,0,0,.85-.9c0-.47-.13-.94-.66-1-.95-.06-1.9,0-2.86,0v2.77Zm24.93,0H48.1a.82.82,0,0,0,.91-.83c.13-1.22-.06-1.8-.64-2l-.12,0H45.91Zm-3.86-2.79c0,.7,0,1.36,0,2a.75.75,0,0,0,.82.77h1.88a.73.73,0,0,0,.8-.77c0-.66,0-1.33,0-2h-.65V45.6c-.62,0-1.18,0-1.74,0-.39,0-.51-.14-.49-.52,0-.54,0-1.08,0-1.65Zm-2.19.62V46.2h.67V44H41.8l0-.59H38.54l0,.62ZM50,43.39l-.59.06v2.74H50Z" style="fill:#fff"/><path d="M48.63,17.19c.95-.36.95-.36,1.52.41l.63.85c-.92.45-.92.45-1.49-.3l-.63-.84A.42.42,0,0,1,48.63,17.19Z" style="fill:#fff"/><path d="M42.73,18.59c.67-.36,1.18-.35,1.54.34a7,7,0,0,0,.66.91c-1,.39-1,.39-1.54-.38Z" style="fill:#fff"/><path d="M38.87,19.47c1-.32,1-.32,1.55.47l.6.81C40,21.2,39.72,21,38.87,19.47Z" style="fill:#fff"/><path d="M31,21.32c1-.35,1-.35,1.57.41.22.27.42.56.64.84-1,.4-1,.41-1.55-.37Z" style="fill:#fff"/><path d="M48.83,18.91a1,1,0,0,1-1.58-.41,6.42,6.42,0,0,0-.6-.8c.91-.43,1-.42,1.51.31Z" style="fill:#fff"/><path d="M25.35,24.4c-1,.39-1,.39-1.52-.35-.22-.28-.42-.57-.63-.86,0,0,0,0,0-.06.95-.34.95-.34,1.52.42Z" style="fill:#fff"/><path d="M33,20.85c.63-.32,1.14-.34,1.5.38a5.73,5.73,0,0,0,.64.85c-.78.46-.94.43-1.44-.22L33,21A.42.42,0,0,1,33,20.85Z" style="fill:#fff"/><path d="M29.3,23.49c-1,.41-1,.41-1.55-.36l-.63-.86c.89-.47.92-.46,1.5.32Z" style="fill:#fff"/><path d="M34.91,20.41c1-.35,1-.35,1.57.4l.64.85c-.95.39-1,.39-1.54-.35Z" style="fill:#fff"/><path d="M44.67,18.12c1-.36,1-.36,1.58.41.21.27.41.55.62.84-1,.39-1,.39-1.52-.36L45,18.57Z" style="fill:#fff"/><path d="M42.94,20.3a1,1,0,0,1-1.55-.42,6.9,6.9,0,0,0-.63-.85C42,18.65,42,18.65,42.94,20.3Z" style="fill:#fff"/><path d="M23.34,24.89c-.65.35-1.15.31-1.51-.37a8.6,8.6,0,0,0-.63-.86c.79-.46,1-.43,1.46.24l.63.85A.53.53,0,0,1,23.34,24.89Z" style="fill:#fff"/><path d="M25.21,22.67c.92-.35.92-.35,1.47.39l.35.45c.1.13.19.27.28.4-.83.45-.92.44-1.46-.26l-.63-.86S25.21,22.71,25.21,22.67Z" style="fill:#fff"/><path d="M52.75,18c-.72.4-1.22.27-1.58-.41a6.7,6.7,0,0,0-.59-.81c.82-.44,1-.41,1.48.28C52.29,17.38,52.51,17.69,52.75,18Z" style="fill:#fff"/><path d="M31.25,23c-.66.37-1.17.36-1.54-.34a7.64,7.64,0,0,0-.65-.91c1-.36,1-.36,1.56.41C30.83,22.47,31,22.74,31.25,23Z" style="fill:#fff"/><path d="M36.87,20c1-.4,1-.4,1.52.34l.63.85s0,0,0,.06c-.89.39-.9.39-1.47-.36C37.32,20.57,37.1,20.27,36.87,20Z" style="fill:#fff"/><path d="M52.45,16.25,53.54,16c.13.52.25,1,.35,1.48a.89.89,0,0,1-.08.35c-.1,0-.23-.08-.29-.16C53.17,17.23,52.85,16.78,52.45,16.25Z" style="fill:#fff"/><path d="M25.85,41.83V37.94h2.52c.32,1.13.47,1.25,1.67,1.25H49a2.45,2.45,0,0,0,.86-.11,1.26,1.26,0,0,0,.78-1.36,1.33,1.33,0,0,0-1.29-1.08c-1.17,0-2.34,0-3.52,0H39L41.22,34c2.7,0,5.66-.07,8.61,0a3.81,3.81,0,0,1,3.39,3.81,3.91,3.91,0,0,1-3.34,3.94,7.32,7.32,0,0,1-.81,0H25.85Z" style="fill:#fff"/><path d="M23.89,41.83h-2.6v-13H35.68a4.92,4.92,0,0,0-2.1,2.33c-.06.15-.4.25-.61.25-2.79,0-5.57,0-8.36,0H23.9V34H36.54c1.42,0,1.9-.71,1.38-2.15h2.67c.78,2.23-1.16,4.76-3.73,4.77-4.06,0-8.13,0-12.19,0h-.78Z" style="fill:#fff"/><path d="M36.54,33.61c-.8,0-1.6,0-2.39,0-.14,0-.37-.29-.39-.46a3.83,3.83,0,0,1,3.88-4.32c1.78,0,3.56,0,5.34,0H53.19v3.9H50.67c-.31-1.12-.49-1.26-1.68-1.26H38.12C36.51,31.43,36,32.07,36.54,33.61Z" style="fill:#fff"/><path d="M51.81,43.94l1.19.91-1.19.89Z" style="fill:#fff"/><path d="M29.57,45.56c-.77,0-.87-.19-.62-1.46h.62Z" style="fill:#fff"/><path d="M30.94,44.09a6.68,6.68,0,0,1,0,1.11c0,.15-.25.27-.38.4-.12-.12-.32-.24-.34-.37a8.58,8.58,0,0,1,0-1.14Z" style="fill:#fff"/><path d="M21.14,44.06c.64,0,1.25,0,1.85,0,.14,0,.27.18.4.28-.14.11-.27.3-.42.31a14,14,0,0,1-1.45,0C21.11,44.66,21.11,44.66,21.14,44.06Z" style="fill:#fff"/><path d="M46.62,45.6V44.06c.52,0,1,0,1.54,0,.1,0,.25.2.27.32a2.21,2.21,0,0,1,0,.81.54.54,0,0,1-.36.37A13.91,13.91,0,0,1,46.62,45.6Z" style="fill:#fff"/></g></g></svg>