<svg xmlns="http://www.w3.org/2000/svg" viewBox="0 0 1080.06 960.89"><defs><style>.dab1e5f9-10c4-4446-b806-acf3be8d9387{fill:#fff;}</style></defs><title>Asset 3</title><g id="6fa12326-6e66-4d5d-a86f-0cc2af7c0987" data-name="Layer 2"><g id="ed4b3aa3-0083-42b4-bf63-dfd7b22c877f" data-name="Layer 4"><path class="dab1e5f9-10c4-4446-b806-acf3be8d9387" d="M108.49,892.11c-.68,4-1.83,5-6,5.07-10.29,0-20.58,0-30.87,0-10.13,0-20.26-.06-30.39,0-2.36,0-3.4-.51-3.27-3.13.21-4.26.14-8.55,0-12.82-.06-2.14.45-3.09,2.88-3.08,20.57.09,41.15,0,61.73.07,3.79,0,5.14,1.22,5.8,4.86A26.29,26.29,0,0,1,108.49,892.11Z"/><path class="dab1e5f9-10c4-4446-b806-acf3be8d9387" d="M108.42,883.13c-.66-3.64-2-4.85-5.8-4.86-20.58,0-41.16,0-61.73-.07-2.43,0-2.94.94-2.88,3.08.12,4.27.19,8.56,0,12.82-.13,2.62.91,3.16,3.27,3.13,10.13-.1,20.26,0,30.39,0,10.29,0,20.58,0,30.87,0,4.14,0,5.29-1.06,6-5.07A26.29,26.29,0,0,0,108.42,883.13Zm0,0c-.66-3.64-2-4.85-5.8-4.86-20.58,0-41.16,0-61.73-.07-2.43,0-2.94.94-2.88,3.08.12,4.27.19,8.56,0,12.82-.13,2.62.91,3.16,3.27,3.13,10.13-.1,20.26,0,30.39,0,10.29,0,20.58,0,30.87,0,4.14,0,5.29-1.06,6-5.07A26.29,26.29,0,0,0,108.42,883.13Zm0,0c-.66-3.64-2-4.85-5.8-4.86-20.58,0-41.16,0-61.73-.07-2.43,0-2.94.94-2.88,3.08.12,4.27.19,8.56,0,12.82-.13,2.62.91,3.16,3.27,3.13,10.13-.1,20.26,0,30.39,0,10.29,0,20.58,0,30.87,0,4.14,0,5.29-1.06,6-5.07A26.29,26.29,0,0,0,108.42,883.13Zm194.94-1c-.42-3.09-1.14-3.77-4.25-3.84-3.95-.08-7.9,0-11.85,0-5.14,0-5.81.5-6,5.61-.18,6.15,0,12.32,0,18.48h0c0,6.32-.15,12.64,0,19,.14,4.7.8,5.17,5.31,5.2,4.11,0,8.22,0,12.33,0,3.45,0,4-.6,4.44-4.1a29.8,29.8,0,0,0,.17-3.78q0-16.12,0-32.24A31.91,31.91,0,0,0,303.36,882.11Zm40.63,1.3c-.29-4.38-1.2-5.12-5.55-5.15-3.63,0-7.27,0-10.91,0-4.86,0-5.64.76-6,5.7-.07.78-.06,1.58-.06,2.37q0,16.13,0,32.26a22.18,22.18,0,0,0,.31,4.24c.6,3.12,1.2,3.63,4.42,3.67q6.65.09,13.28,0c3.18,0,3.8-.58,4.37-3.73a25,25,0,0,0,.26-4.25c0-5.37,0-10.75,0-16.13,0-3,0-6,0-9C344.08,890.05,344.21,886.72,344,883.41Zm-235.57-.28c-.66-3.64-2-4.85-5.8-4.86-20.58,0-41.16,0-61.73-.07-2.43,0-2.94.94-2.88,3.08.12,4.27.19,8.56,0,12.82-.13,2.62.91,3.16,3.27,3.13,10.13-.1,20.26,0,30.39,0,10.29,0,20.58,0,30.87,0,4.14,0,5.29-1.06,6-5.07A26.29,26.29,0,0,0,108.42,883.13Zm235.57.28c-.29-4.38-1.2-5.12-5.55-5.15-3.63,0-7.27,0-10.91,0-4.86,0-5.64.76-6,5.7-.07.78-.06,1.58-.06,2.37q0,16.13,0,32.26a22.18,22.18,0,0,0,.31,4.24c.6,3.12,1.2,3.63,4.42,3.67q6.65.09,13.28,0c3.18,0,3.8-.58,4.37-3.73a25,25,0,0,0,.26-4.25c0-5.37,0-10.75,0-16.13,0-3,0-6,0-9C344.08,890.05,344.21,886.72,344,883.41Zm-40.63-1.3c-.42-3.09-1.14-3.77-4.25-3.84-3.95-.08-7.9,0-11.85,0-5.14,0-5.81.5-6,5.61-.18,6.15,0,12.32,0,18.48h0c0,6.32-.15,12.64,0,19,.14,4.7.8,5.17,5.31,5.2,4.11,0,8.22,0,12.33,0,3.45,0,4-.6,4.44-4.1a29.8,29.8,0,0,0,.17-3.78q0-16.12,0-32.24A31.91,31.91,0,0,0,303.36,882.11Zm-194.94,1c-.66-3.64-2-4.85-5.8-4.86-20.58,0-41.16,0-61.73-.07-2.43,0-2.94.94-2.88,3.08.12,4.27.19,8.56,0,12.82-.13,2.62.91,3.16,3.27,3.13,10.13-.1,20.26,0,30.39,0,10.29,0,20.58,0,30.87,0,4.14,0,5.29-1.06,6-5.07A26.29,26.29,0,0,0,108.42,883.13Zm194.94-1c-.42-3.09-1.14-3.77-4.25-3.84-3.95-.08-7.9,0-11.85,0-5.14,0-5.81.5-6,5.61-.18,6.15,0,12.32,0,18.48h0c0,6.32-.15,12.64,0,19,.14,4.7.8,5.17,5.31,5.2,4.11,0,8.22,0,12.33,0,3.45,0,4-.6,4.44-4.1a29.8,29.8,0,0,0,.17-3.78q0-16.12,0-32.24A31.91,31.91,0,0,0,303.36,882.11Zm40.63,1.3c-.29-4.38-1.2-5.12-5.55-5.15-3.63,0-7.27,0-10.91,0-4.86,0-5.64.76-6,5.7-.07.78-.06,1.58-.06,2.37q0,16.13,0,32.26a22.18,22.18,0,0,0,.31,4.24c.6,3.12,1.2,3.63,4.42,3.67q6.65.09,13.28,0c3.18,0,3.8-.58,4.37-3.73a25,25,0,0,0,.26-4.25c0-5.37,0-10.75,0-16.13,0-3,0-6,0-9C344.08,890.05,344.21,886.72,344,883.41Zm-235.57-.28c-.66-3.64-2-4.85-5.8-4.86-20.58,0-41.16,0-61.73-.07-2.43,0-2.94.94-2.88,3.08.12,4.27.19,8.56,0,12.82-.13,2.62.91,3.16,3.27,3.13,10.13-.1,20.26,0,30.39,0,10.29,0,20.58,0,30.87,0,4.14,0,5.29-1.06,6-5.07A26.29,26.29,0,0,0,108.42,883.13Zm235.57.28c-.29-4.38-1.2-5.12-5.55-5.15-3.63,0-7.27,0-10.91,0-4.86,0-5.64.76-6,5.7-.07.78-.06,1.58-.06,2.37q0,16.13,0,32.26a22.18,22.18,0,0,0,.31,4.24c.6,3.12,1.2,3.63,4.42,3.67q6.65.09,13.28,0c3.18,0,3.8-.58,4.37-3.73a25,25,0,0,0,.26-4.25c0-5.37,0-10.75,0-16.13,0-3,0-6,0-9C344.08,890.05,344.21,886.72,344,883.41Zm-40.63-1.3c-.42-3.09-1.14-3.77-4.25-3.84-3.95-.08-7.9,0-11.85,0-5.14,0-5.81.5-6,5.61-.18,6.15,0,12.32,0,18.48h0c0,6.32-.15,12.64,0,19,.14,4.7.8,5.17,5.31,5.2,4.11,0,8.22,0,12.33,0,3.45,0,4-.6,4.44-4.1a29.8,29.8,0,0,0,.17-3.78q0-16.12,0-32.24A31.91,31.91,0,0,0,303.36,882.11Zm-194.94,1c-.66-3.64-2-4.85-5.8-4.86-20.58,0-41.16,0-61.73-.07-2.43,0-2.94.94-2.88,3.08.12,4.27.19,8.56,0,12.82-.13,2.62.91,3.16,3.27,3.13,10.13-.1,20.26,0,30.39,0,10.29,0,20.58,0,30.87,0,4.14,0,5.29-1.06,6-5.07A26.29,26.29,0,0,0,108.42,883.13Zm194.94-1c-.42-3.09-1.14-3.77-4.25-3.84-3.95-.08-7.9,0-11.85,0-5.14,0-5.81.5-6,5.61-.18,6.15,0,12.32,0,18.48h0c0,6.32-.15,12.64,0,19,.14,4.7.8,5.17,5.31,5.2,4.11,0,8.22,0,12.33,0,3.45,0,4-.6,4.44-4.1a29.8,29.8,0,0,0,.17-3.78q0-16.12,0-32.24A31.91,31.91,0,0,0,303.36,882.11Zm40.63,1.3c-.29-4.38-1.2-5.12-5.55-5.15-3.63,0-7.27,0-10.91,0-4.86,0-5.64.76-6,5.7-.07.78-.06,1.58-.06,2.37q0,16.13,0,32.26a22.18,22.18,0,0,0,.31,4.24c.6,3.12,1.2,3.63,4.42,3.67q6.65.09,13.28,0c3.18,0,3.8-.58,4.37-3.73a25,25,0,0,0,.26-4.25c0-5.37,0-10.75,0-16.13,0-3,0-6,0-9C344.08,890.05,344.21,886.72,344,883.41Zm-235.57-.28c-.66-3.64-2-4.85-5.8-4.86-20.58,0-41.16,0-61.73-.07-2.43,0-2.94.94-2.88,3.08.12,4.27.19,8.56,0,12.82-.13,2.62.91,3.16,3.27,3.13,10.13-.1,20.26,0,30.39,0,10.29,0,20.58,0,30.87,0,4.14,0,5.29-1.06,6-5.07A26.29,26.29,0,0,0,108.42,883.13Zm235.57.28c-.29-4.38-1.2-5.12-5.55-5.15-3.63,0-7.27,0-10.91,0-4.86,0-5.64.76-6,5.7-.07.78-.06,1.58-.06,2.37q0,16.13,0,32.26a22.18,22.18,0,0,0,.31,4.24c.6,3.12,1.2,3.63,4.42,3.67q6.65.09,13.28,0c3.18,0,3.8-.58,4.37-3.73a25,25,0,0,0,.26-4.25c0-5.37,0-10.75,0-16.13,0-3,0-6,0-9C344.08,890.05,344.21,886.72,344,883.41Zm-40.63-1.3c-.42-3.09-1.14-3.77-4.25-3.84-3.95-.08-7.9,0-11.85,0-5.14,0-5.81.5-6,5.61-.18,6.15,0,12.32,0,18.48h0c0,6.32-.15,12.64,0,19,.14,4.7.8,5.17,5.31,5.2,4.11,0,8.22,0,12.33,0,3.45,0,4-.6,4.44-4.1a29.8,29.8,0,0,0,.17-3.78q0-16.12,0-32.24A31.91,31.91,0,0,0,303.36,882.11Zm-194.94,1c-.66-3.64-2-4.85-5.8-4.86-20.58,0-41.16,0-61.73-.07-2.43,0-2.94.94-2.88,3.08.12,4.27.19,8.56,0,12.82-.13,2.62.91,3.16,3.27,3.13,10.13-.1,20.26,0,30.39,0,10.29,0,20.58,0,30.87,0,4.14,0,5.29-1.06,6-5.07A26.29,26.29,0,0,0,108.42,883.13Zm194.94-1c-.42-3.09-1.14-3.77-4.25-3.84-3.95-.08-7.9,0-11.85,0-5.14,0-5.81.5-6,5.61-.18,6.15,0,12.32,0,18.48h0c0,6.32-.15,12.64,0,19,.14,4.7.8,5.17,5.31,5.2,4.11,0,8.22,0,12.33,0,3.45,0,4-.6,4.44-4.1a29.8,29.8,0,0,0,.17-3.78q0-16.12,0-32.24A31.91,31.91,0,0,0,303.36,882.11Zm40.63,1.3c-.29-4.38-1.2-5.12-5.55-5.15-3.63,0-7.27,0-10.91,0-4.86,0-5.64.76-6,5.7-.07.78-.06,1.58-.06,2.37q0,16.13,0,32.26a22.18,22.18,0,0,0,.31,4.24c.6,3.12,1.2,3.63,4.42,3.67q6.65.09,13.28,0c3.18,0,3.8-.58,4.37-3.73a25,25,0,0,0,.26-4.25c0-5.37,0-10.75,0-16.13,0-3,0-6,0-9C344.08,890.05,344.21,886.72,344,883.41Zm547.12,7c0-2,0-4.12-.18-6.17a5.72,5.72,0,0,0-4.6-5.36,16.9,16.9,0,0,0-4.69-.59q-21.87,0-43.73,0c-3.36,0-3.44.07-3.44,3.37q0,20.68,0,41.35c0,3.47.07,3.5,3.75,3.52,7.29,0,14.58,0,21.87,0s14.57,0,21.86,0c7,0,9.1-2.07,9.15-9C891.16,908.44,891.12,899.41,891.11,890.37Zm-782.69-7.24c-.66-3.64-2-4.85-5.8-4.86-20.58,0-41.16,0-61.73-.07-2.43,0-2.94.94-2.88,3.08.12,4.27.19,8.56,0,12.82-.13,2.62.91,3.16,3.27,3.13,10.13-.1,20.26,0,30.39,0,10.29,0,20.58,0,30.87,0,4.14,0,5.29-1.06,6-5.07A26.29,26.29,0,0,0,108.42,883.13Zm235.57.28c-.29-4.38-1.2-5.12-5.55-5.15-3.63,0-7.27,0-10.91,0-4.86,0-5.64.76-6,5.7-.07.78-.06,1.58-.06,2.37q0,16.13,0,32.26a22.18,22.18,0,0,0,.31,4.24c.6,3.12,1.2,3.63,4.42,3.67q6.65.09,13.28,0c3.18,0,3.8-.58,4.37-3.73a25,25,0,0,0,.26-4.25c0-5.37,0-10.75,0-16.13,0-3,0-6,0-9C344.08,890.05,344.21,886.72,344,883.41Zm-44.88-5.14c-3.95-.08-7.9,0-11.85,0-5.14,0-5.81.5-6,5.61-.18,6.15,0,12.32,0,18.48h0c0,6.32-.15,12.64,0,19,.14,4.7.8,5.17,5.31,5.2,4.11,0,8.22,0,12.33,0,3.45,0,4-.6,4.44-4.1a29.8,29.8,0,0,0,.17-3.78q0-16.12,0-32.24a31.91,31.91,0,0,0-.21-4.26C302.94,879,302.22,878.34,299.11,878.27Zm592,12.1c0-2,0-4.12-.18-6.17a5.72,5.72,0,0,0-4.6-5.36,16.9,16.9,0,0,0-4.69-.59q-21.87,0-43.73,0c-3.36,0-3.44.07-3.44,3.37q0,20.68,0,41.35c0,3.47.07,3.5,3.75,3.52,7.29,0,14.58,0,21.87,0s14.57,0,21.86,0c7,0,9.1-2.07,9.15-9C891.16,908.44,891.12,899.41,891.11,890.37Zm186.16-586c-6.62-.14-6.61-.14-9.32,5.94-6.69,15-13.46,30-20,45.11-1.21,2.81-2.67,3.69-5.61,3.6-6.81-.22-13.63-.07-20.44-.07h-5c8.21-18.49,16.09-36.21,24-54.05-1.87-.79-3.46-.51-5-.52-6.34,0-12.67-.06-19,0-3.15,0-6.77-1.09-9.34.46-2.76,1.66-3.19,5.61-4.54,8.61-6.37,14.13-12.65,28.29-18.95,42.45-.71,1.59-1.15,3.12-3.52,3.09-8.84-.13-17.69-.05-27.23-.05,8.13-18.3,16-36.14,23.92-53.9a4.55,4.55,0,0,0-3.09-.68c-9,0-18.06.12-27.09-.07-2.87-.07-4.13,1-5.22,3.53C935.65,322,929.29,336.16,923,350.32c-1,2.31-2.09,4.6-3.11,6.92a2.46,2.46,0,0,1-2.5,1.71c-9-.05-18,0-27.65,0l24-54.1a10.58,10.58,0,0,0-1.81-.44c-9.83,0-19.65,0-29.47-.08-2.14,0-3.11.9-3.87,2.69-1.85,4.37-3.82,8.69-5.75,13q-8,18-16,36c-.62,1.41-.92,3-3.09,3-8.66-.07-17.32,0-26.64,0l24.21-54.56c-11.24,0-21.67,0-32.1,0a2.68,2.68,0,0,0-2.86,2c-.43,1.18-1,2.31-1.54,3.46-6.83,15.32-13.69,30.61-20.42,46-1,2.32-2.14,3.48-4.89,3.28-4.1-.29-8.23-.07-12.35-.07H764.39c8.18-18.42,16-36.14,23.85-53.71-1.22-1.23-2.39-.85-3.44-.85-8.87,0-17.75.1-26.61-.09-2.85-.07-4.18.93-5.28,3.48C748,319.23,742.82,330.61,737.73,342c-2.12,4.76-4.31,9.5-6.37,14.29C730.68,357.89,730,359,728,359c-8.52-.1-17,0-26.26,0l24.19-54.58H693.82a2.63,2.63,0,0,0-2.85,2c-.46,1.34-1.16,2.59-1.74,3.89-6.74,15.18-13.53,30.33-20.2,45.54-1,2.29-2.16,3.41-4.91,3.27-5.37-.28-10.77-.08-16.16-.08h-8.89c8.19-18.46,16-36.17,23.9-53.84-.71-.39-1-.67-1.24-.67-10.14,0-20.28,0-30.42-.1-2,0-2.68,1.18-3.34,2.7-2,4.64-4.12,9.25-6.17,13.87-5.14,11.57-10.36,23.09-15.33,34.72-1.13,2.64-2.56,3.52-5.34,3.38-4.43-.23-8.87-.06-13.31-.06H576.41c8.19-18.44,16-36.14,23.84-53.72-1.48-1.25-2.8-.84-4-.84-8.55,0-17.12.17-25.66-.12-3.34-.11-4.67,1.2-5.9,4-5.9,13.64-12,27.2-18.07,40.77-1.42,3.17-2.19,7.26-4.63,9.16-2.68,2.09-7,.61-10.63.68-5.62.11-11.25,0-17.61,0,2.29-5.14,4.27-9.57,6.24-14s3.95-9,5.94-13.45,4-8.94,6-13.44,4.21-8.58,5.73-13.67c-10.39,0-20,.18-29.68-.1-3.33-.09-4.7,1.18-5.93,4-6.18,14.22-12.54,28.35-18.86,42.5-1.16,2.6-1.77,5.92-3.76,7.53-2.22,1.81-5.8.56-8.78.61-6.27.1-12.54,0-19.42,0,7.8-18.52,16.24-36.07,23.95-54.58-9.48,0-18.17-.08-26.85,0s-6.39-1.44-9.94,6.39c-6.72,14.84-13.37,29.72-19.83,44.67-1.21,2.81-2.7,3.66-5.63,3.57-7-.22-13.94-.05-20.91-.1-1,0-2.19.52-3.17-.87l23.61-53.18a9.84,9.84,0,0,0-1.82-.47c-9.82,0-19.64,0-29.46-.07-2.11,0-3.06.9-3.84,2.72-2.74,6.4-5.62,12.73-8.45,19.09Q362.2,341.06,355.52,356c-.61,1.38-.91,3-3.11,2.95-8.66-.09-17.31,0-26.64,0,8.16-18.37,16.06-36.18,24.21-54.57-11.19,0-21.63,0-32.06,0-2.05,0-2.64,1.29-3.29,2.79-2.16,4.93-4.37,9.83-6.56,14.74q-7.53,16.9-15.08,33.79c-.6,1.34-.67,3.26-2.86,3.26h-27c8.17-18.4,16.06-36.19,24.21-54.56-10.6,0-20.41.11-30.21-.07-3,0-4.41,1-5.6,3.72-6.35,14.66-13.23,29.09-19.29,43.87-2.25,5.49-4.94,7.77-11,7.2-6.67-.62-13.45-.14-20.77-.14l24.21-54.58c-10.49,0-20.14.19-29.78-.1-3.51-.11-4.95,1.26-6.25,4.23-6.89,15.8-14,31.5-20.93,47.29-1,2.36-2.21,3.33-4.91,3.24-6.49-.24-13-.08-19.48-.08a11.67,11.67,0,0,1-2.37-.09c-1.58-.35-2.64-1.15-1.82-3,.38-.86.78-1.73,1.16-2.59q9.94-22.33,19.85-44.66c.53-1.21,1.66-2.33,1-4.22-10.38,0-20.81,0-31.25,0-2.12,0-2.61,1.42-3.25,2.85-3.86,8.66-7.69,17.35-11.58,26-.57,1.25-.75,2.78-2.33,3.71-6-4.78-12-9.7-18.16-14.35-2.15-1.62-2-3-1-5.11,2-4.1,3.71-8.29,5.6-12.56a12.91,12.91,0,0,0-5.15-.5c-6.17,0-12.35-.1-18.53,0A9.38,9.38,0,0,1,69,302.12q-18.48-14.91-37.16-29.6a30.25,30.25,0,0,1-5.61-5.75c-4.64-6.23-9.39-12.37-14-18.61-1.28-1.73-2.46-2.39-4.75-1.72s-4.81,1.7-7.42,1.34v1.9a13.78,13.78,0,0,1,1.22,4l.18.83c.17,2.68.11,5.38.11,8.07V947c0,2.22,0,4.43,0,6.65,0,2.52.07,4.08.5,5,.66,1.52,2.25,1.58,6.17,1.58q533.34,0,1066.68,0c1.71,0,3.48.44,5.13-.44v-655A4.38,4.38,0,0,0,1077.27,304.35ZM22,372.42q519.51,0,1039,0c6.66,0,5.87-1.09,5.87,5.64q0,227.21,0,454.39c0,5.71,0,5.71-5.81,5.71H22c-6.14,0-6.14,0-6.14-6.35q0-226.71,0-453.44C15.91,371.27,15.08,372.42,22,372.42ZM1060.28,918.8c.47,15.62-12.82,28.52-28.64,28.6-9.19.05-18.37,0-27.55,0s-18.05.11-27.07,0a28.52,28.52,0,0,1-27.74-22.29,27.44,27.44,0,0,1-.51-5.65c0-11.24-.08-22.49,0-33.73.08-14.4,10.39-26.61,24.8-27.61,20.52-1.43,41.13-1.08,61.68-.12,11.17.52,25.35,11.23,25,28C1060,897,1060,907.89,1060.28,918.8ZM939.8,862.5v79.28c0,1.1,0,2.21,0,3.32,0,1.42-.74,1.93-2.07,1.92-5.54,0-11.08,0-16.62,0-1.63,0-2.29-.68-2.22-2.27,0-1.11,0-2.22,0-3.32V902q0-20.17,0-40.35c0-5.47.19-4.47,4.7-4.5s9.18,0,13.77,0c1.84,0,2.6.68,2.46,2.51C939.73,860.6,939.8,861.55,939.8,862.5Zm-128.55-1c0-4.28-.33-4.31,4-4.31q32.53,0,65.07,0c9.21,0,17,3.21,23.1,10.2a25,25,0,0,1,6.47,16.44c.12,12.19.23,24.38,0,36.57-.26,13.05-10.81,24.46-23.83,26.2a50.39,50.39,0,0,1-6.62.41q-31.59,0-63.17,0c-5,0-5,0-5-4.78q0-20.19,0-40.38T811.25,861.48Zm-8.83,16.21q0,20.67,0,41.34A29.2,29.2,0,0,1,796,938c-5,6.24-11.54,9.12-19.49,9.08-9.82,0-19.64,0-29.46,0-9.5,0-19,0-28.51,0-15,0-25.77-10.14-26.46-25.27-.42-9.17-.17-18.37-.19-27.56q0-16.62,0-33.26c0-3.67,0-3.71,3.51-3.73,4.75,0,9.51.11,14.26-.06,2.56-.09,3.19.88,3.18,3.29-.09,15.05,0,30.1,0,45.14,0,4.75-.1,9.51,0,14.26.16,5.21,1.44,6.45,6.62,6.46q27.8.08,55.59,0c5,0,6.41-1.4,6.45-6.64.09-12.51,0-25,0-37.54,0-7.12,0-14.25,0-21.38,0-3.45.06-3.5,3.25-3.53,4.91,0,9.83.09,14.73-.05,2.3-.07,3,.69,3,3C802.33,866,802.42,871.83,802.42,877.69ZM638.13,947c-4,0-7.92,0-11.87,0-3.54,0-3.6-.07-3.6-3.65q0-24,0-48c0-4.27,0-8.55,0-12.82,0-4.57.49-4.47-4.26-4.46H587c-5.76-.05-5,.58-5.09-5q0-5.46,0-10.93c0-5.54-.6-4.93,5.19-4.93q23,0,46.08,0,23.52,0,47,0c3.93,0,4,0,4,3.8q0,6.64,0,13.3c0,3.75-.06,3.79-4,3.8-10.92,0-21.85,0-32.78,0-3.84,0-3.88,0-3.89,3.83q0,29.94,0,59.86C643.55,947.43,644.38,947,638.13,947Zm-87.08-32.6c-1-1.93-3.07-1.95-5-1.94-5.86,0-11.72,0-17.58,0-12.19,0-24.4-.35-36.58.09-15,.53-25.46-12.55-26.12-24.82-.43-7.89,1.21-15.08,6.24-21.33a23.76,23.76,0,0,1,19.43-9.24h52.73c7.13,0,14.25.07,21.38,0,2.31,0,3.45.4,3.35,3.06-.19,4.9-.16,9.82,0,14.72.07,2.43-.63,3.26-3.19,3.23-11.24-.14-22.49-.06-33.73-.06-13,0-26,0-39,0-2.47,0-5.06-.06-5.82,2.84-.85,3.21-1.31,6.58.92,9.55.86,1.15,2.2,1.09,3.48,1.09H504.4c13.93,0,27.87-.08,41.8,0,12.93.11,22,6.79,25.55,18.67a29.86,29.86,0,0,1-1.52,22.21c-4.52,9.34-12,14.48-22.6,14.55H511q-18.53,0-37.05,0c-4,0-4-.06-4-3.83,0-4.43,0-8.87,0-13.3,0-3.51.07-3.56,3.76-3.57,9.66,0,19.32,0,29,0q21.13,0,42.28,0c2.36,0,5,.39,6.27-2.26A10.33,10.33,0,0,0,551.05,914.41Zm-293.55-29c-.18-15.12,12.22-27.22,27.21-28.1q1.67-.09,3.33-.09c16.94,0,33.88,0,50.82,0,8.08,0,15.27,2.28,21.28,7.81,5.63,5.18,8.81,11.56,8.87,19.25.1,11.88.19,23.75,0,35.62a27.78,27.78,0,0,1-24.28,26.77,50.68,50.68,0,0,1-6.16.38c-8.39,0-16.78,0-25.17,0H286.8a28.94,28.94,0,0,1-19.63-7.1c-6.05-5.25-9.5-11.81-9.58-19.88C257.48,908.48,257.63,896.92,257.5,885.37Zm-17,60.8c-1.06,1.17-2.21.83-3.21.83-7,0-13.94-.06-20.91.06a6.77,6.77,0,0,1-5.78-2.41c-13.53-15.3-27.18-30.5-40.77-45.75-.38-.42-1.08-.76-.73-1.73,1.37-.7,3-.32,4.46-.32,15.21,0,30.41,0,45.61,0,6.36,0,7.87-1.35,8.4-7.58a22.37,22.37,0,0,0-.07-4.25c-.61-5.47-2.13-6.88-7.53-6.89q-29.7,0-59.39,0c-3.93,0-3.83-.29-3.83,3.9q0,30.4,0,60.81c0,4.16,0,4.18-4.08,4.21-4.43,0-8.87,0-13.3,0-3.88,0-3.53-.13-3.53-3.71q0-20.19,0-40.38,0-21.15,0-42.29c0-3.38.07-3.45,3.29-3.45q42.06,0,84.1,0c8.78,0,15.73,3.79,20.11,11.33,7.38,12.69,7.36,25.64-.26,38.23-4.43,7.33-11.36,10.76-19.89,11-2.34,0-4.69,0-8.22,0ZM14.21,861.1c0-3.87,0-3.91,3.81-3.91q21.14,0,42.28,0h38c15.12,0,25.06,8,27.81,23.11,1.76,9.62.57,18.91-5.39,27.18-5,6.92-11.62,10.44-20.21,10.41-19.79,0-39.59,0-59.38,0a24.62,24.62,0,0,1-2.85,0c-2.4-.29-3.3.53-3.23,3.11.17,7.28.07,14.57,0,21.85,0,4.15,0,4.17-4.07,4.2q-6.64,0-13.3,0c-3.48,0-3.52-.07-3.53-3.72q0-17.1,0-34.21Q14.2,885.1,14.21,861.1ZM996.9,930.33l36.55-27.2L996.61,875C995.65,881.49,995.9,926.79,996.9,930.33ZM838.22,926.5c7.29,0,14.58,0,21.87,0s14.57,0,21.86,0c7,0,9.1-2.07,9.15-9,.06-9,0-18.06,0-27.1,0-2,0-4.12-.18-6.17a5.72,5.72,0,0,0-4.6-5.36,16.9,16.9,0,0,0-4.69-.59q-21.87,0-43.73,0c-3.36,0-3.44.07-3.44,3.37q0,20.68,0,41.35C834.47,926.45,834.54,926.48,838.22,926.5Zm-516.46-3.68c.6,3.12,1.2,3.63,4.42,3.67q6.65.09,13.28,0c3.18,0,3.8-.58,4.37-3.73a25,25,0,0,0,.26-4.25c0-5.37,0-10.75,0-16.13,0-3,0-6,0-9,0-3.32.12-6.65-.1-10-.29-4.38-1.2-5.12-5.55-5.15-3.63,0-7.27,0-10.91,0-4.86,0-5.64.76-6,5.7-.07.78-.06,1.58-.06,2.37q0,16.13,0,32.26A22.18,22.18,0,0,0,321.76,922.82Zm-40.48-20.48c0,6.32-.15,12.64,0,19,.14,4.7.8,5.17,5.31,5.2,4.11,0,8.22,0,12.33,0,3.45,0,4-.6,4.44-4.1a29.8,29.8,0,0,0,.17-3.78q0-16.12,0-32.24a31.91,31.91,0,0,0-.21-4.26c-.42-3.09-1.14-3.77-4.25-3.84-3.95-.08-7.9,0-11.85,0-5.14,0-5.81.5-6,5.61-.18,6.15,0,12.32,0,18.48Zm-240-5.11c10.13-.1,20.26,0,30.39,0,10.29,0,20.58,0,30.87,0,4.14,0,5.29-1.06,6-5.07a26.29,26.29,0,0,0-.07-9c-.66-3.64-2-4.85-5.8-4.86-20.58,0-41.16,0-61.73-.07-2.43,0-2.94.94-2.88,3.08.12,4.27.19,8.56,0,12.82C37.86,896.72,38.9,897.26,41.26,897.23Zm849.85-6.86c0-2,0-4.12-.18-6.17a5.72,5.72,0,0,0-4.6-5.36,16.9,16.9,0,0,0-4.69-.59q-21.87,0-43.73,0c-3.36,0-3.44.07-3.44,3.37q0,20.68,0,41.35c0,3.47.07,3.5,3.75,3.52,7.29,0,14.58,0,21.87,0s14.57,0,21.86,0c7,0,9.1-2.07,9.15-9C891.16,908.44,891.12,899.41,891.11,890.37Zm-587.75-8.26c-.42-3.09-1.14-3.77-4.25-3.84-3.95-.08-7.9,0-11.85,0-5.14,0-5.81.5-6,5.61-.18,6.15,0,12.32,0,18.48h0c0,6.32-.15,12.64,0,19,.14,4.7.8,5.17,5.31,5.2,4.11,0,8.22,0,12.33,0,3.45,0,4-.6,4.44-4.1a29.8,29.8,0,0,0,.17-3.78q0-16.12,0-32.24A31.91,31.91,0,0,0,303.36,882.11Zm40.63,1.3c-.29-4.38-1.2-5.12-5.55-5.15-3.63,0-7.27,0-10.91,0-4.86,0-5.64.76-6,5.7-.07.78-.06,1.58-.06,2.37q0,16.13,0,32.26a22.18,22.18,0,0,0,.31,4.24c.6,3.12,1.2,3.63,4.42,3.67q6.65.09,13.28,0c3.18,0,3.8-.58,4.37-3.73a25,25,0,0,0,.26-4.25c0-5.37,0-10.75,0-16.13,0-3,0-6,0-9C344.08,890.05,344.21,886.72,344,883.41Zm-235.57-.28c-.66-3.64-2-4.85-5.8-4.86-20.58,0-41.16,0-61.73-.07-2.43,0-2.94.94-2.88,3.08.12,4.27.19,8.56,0,12.82-.13,2.62.91,3.16,3.27,3.13,10.13-.1,20.26,0,30.39,0,10.29,0,20.58,0,30.87,0,4.14,0,5.29-1.06,6-5.07A26.29,26.29,0,0,0,108.42,883.13Zm782.69,7.24c0-2,0-4.12-.18-6.17a5.72,5.72,0,0,0-4.6-5.36,16.9,16.9,0,0,0-4.69-.59q-21.87,0-43.73,0c-3.36,0-3.44.07-3.44,3.37q0,20.68,0,41.35c0,3.47.07,3.5,3.75,3.52,7.29,0,14.58,0,21.87,0s14.57,0,21.86,0c7,0,9.1-2.07,9.15-9C891.16,908.44,891.12,899.41,891.11,890.37Zm-547.12-7c-.29-4.38-1.2-5.12-5.55-5.15-3.63,0-7.27,0-10.91,0-4.86,0-5.64.76-6,5.7-.07.78-.06,1.58-.06,2.37q0,16.13,0,32.26a22.18,22.18,0,0,0,.31,4.24c.6,3.12,1.2,3.63,4.42,3.67q6.65.09,13.28,0c3.18,0,3.8-.58,4.37-3.73a25,25,0,0,0,.26-4.25c0-5.37,0-10.75,0-16.13,0-3,0-6,0-9C344.08,890.05,344.21,886.72,344,883.41Zm-40.63-1.3c-.42-3.09-1.14-3.77-4.25-3.84-3.95-.08-7.9,0-11.85,0-5.14,0-5.81.5-6,5.61-.18,6.15,0,12.32,0,18.48h0c0,6.32-.15,12.64,0,19,.14,4.7.8,5.17,5.31,5.2,4.11,0,8.22,0,12.33,0,3.45,0,4-.6,4.44-4.1a29.8,29.8,0,0,0,.17-3.78q0-16.12,0-32.24A31.91,31.91,0,0,0,303.36,882.11Zm-194.94,1c-.66-3.64-2-4.85-5.8-4.86-20.58,0-41.16,0-61.73-.07-2.43,0-2.94.94-2.88,3.08.12,4.27.19,8.56,0,12.82-.13,2.62.91,3.16,3.27,3.13,10.13-.1,20.26,0,30.39,0,10.29,0,20.58,0,30.87,0,4.14,0,5.29-1.06,6-5.07A26.29,26.29,0,0,0,108.42,883.13Zm194.94-1c-.42-3.09-1.14-3.77-4.25-3.84-3.95-.08-7.9,0-11.85,0-5.14,0-5.81.5-6,5.61-.18,6.15,0,12.32,0,18.48h0c0,6.32-.15,12.64,0,19,.14,4.7.8,5.17,5.31,5.2,4.11,0,8.22,0,12.33,0,3.45,0,4-.6,4.44-4.1a29.8,29.8,0,0,0,.17-3.78q0-16.12,0-32.24A31.91,31.91,0,0,0,303.36,882.11Zm40.63,1.3c-.29-4.38-1.2-5.12-5.55-5.15-3.63,0-7.27,0-10.91,0-4.86,0-5.64.76-6,5.7-.07.78-.06,1.58-.06,2.37q0,16.13,0,32.26a22.18,22.18,0,0,0,.31,4.24c.6,3.12,1.2,3.63,4.42,3.67q6.65.09,13.28,0c3.18,0,3.8-.58,4.37-3.73a25,25,0,0,0,.26-4.25c0-5.37,0-10.75,0-16.13,0-3,0-6,0-9C344.08,890.05,344.21,886.72,344,883.41Zm-235.57-.28c-.66-3.64-2-4.85-5.8-4.86-20.58,0-41.16,0-61.73-.07-2.43,0-2.94.94-2.88,3.08.12,4.27.19,8.56,0,12.82-.13,2.62.91,3.16,3.27,3.13,10.13-.1,20.26,0,30.39,0,10.29,0,20.58,0,30.87,0,4.14,0,5.29-1.06,6-5.07A26.29,26.29,0,0,0,108.42,883.13Zm235.57.28c-.29-4.38-1.2-5.12-5.55-5.15-3.63,0-7.27,0-10.91,0-4.86,0-5.64.76-6,5.7-.07.78-.06,1.58-.06,2.37q0,16.13,0,32.26a22.18,22.18,0,0,0,.31,4.24c.6,3.12,1.2,3.63,4.42,3.67q6.65.09,13.28,0c3.18,0,3.8-.58,4.37-3.73a25,25,0,0,0,.26-4.25c0-5.37,0-10.75,0-16.13,0-3,0-6,0-9C344.08,890.05,344.21,886.72,344,883.41Zm-40.63-1.3c-.42-3.09-1.14-3.77-4.25-3.84-3.95-.08-7.9,0-11.85,0-5.14,0-5.81.5-6,5.61-.18,6.15,0,12.32,0,18.48h0c0,6.32-.15,12.64,0,19,.14,4.7.8,5.17,5.31,5.2,4.11,0,8.22,0,12.33,0,3.45,0,4-.6,4.44-4.1a29.8,29.8,0,0,0,.17-3.78q0-16.12,0-32.24A31.91,31.91,0,0,0,303.36,882.11Zm-194.94,1c-.66-3.64-2-4.85-5.8-4.86-20.58,0-41.16,0-61.73-.07-2.43,0-2.94.94-2.88,3.08.12,4.27.19,8.56,0,12.82-.13,2.62.91,3.16,3.27,3.13,10.13-.1,20.26,0,30.39,0,10.29,0,20.58,0,30.87,0,4.14,0,5.29-1.06,6-5.07A26.29,26.29,0,0,0,108.42,883.13Zm194.94-1c-.42-3.09-1.14-3.77-4.25-3.84-3.95-.08-7.9,0-11.85,0-5.14,0-5.81.5-6,5.61-.18,6.15,0,12.32,0,18.48h0c0,6.32-.15,12.64,0,19,.14,4.7.8,5.17,5.31,5.2,4.11,0,8.22,0,12.33,0,3.45,0,4-.6,4.44-4.1a29.8,29.8,0,0,0,.17-3.78q0-16.12,0-32.24A31.91,31.91,0,0,0,303.36,882.11Zm40.63,1.3c-.29-4.38-1.2-5.12-5.55-5.15-3.63,0-7.27,0-10.91,0-4.86,0-5.64.76-6,5.7-.07.78-.06,1.58-.06,2.37q0,16.13,0,32.26a22.18,22.18,0,0,0,.31,4.24c.6,3.12,1.2,3.63,4.42,3.67q6.65.09,13.28,0c3.18,0,3.8-.58,4.37-3.73a25,25,0,0,0,.26-4.25c0-5.37,0-10.75,0-16.13,0-3,0-6,0-9C344.08,890.05,344.21,886.72,344,883.41Zm-235.57-.28c-.66-3.64-2-4.85-5.8-4.86-20.58,0-41.16,0-61.73-.07-2.43,0-2.94.94-2.88,3.08.12,4.27.19,8.56,0,12.82-.13,2.62.91,3.16,3.27,3.13,10.13-.1,20.26,0,30.39,0,10.29,0,20.58,0,30.87,0,4.14,0,5.29-1.06,6-5.07A26.29,26.29,0,0,0,108.42,883.13Zm235.57.28c-.29-4.38-1.2-5.12-5.55-5.15-3.63,0-7.27,0-10.91,0-4.86,0-5.64.76-6,5.7-.07.78-.06,1.58-.06,2.37q0,16.13,0,32.26a22.18,22.18,0,0,0,.31,4.24c.6,3.12,1.2,3.63,4.42,3.67q6.65.09,13.28,0c3.18,0,3.8-.58,4.37-3.73a25,25,0,0,0,.26-4.25c0-5.37,0-10.75,0-16.13,0-3,0-6,0-9C344.08,890.05,344.21,886.72,344,883.41Zm-40.63-1.3c-.42-3.09-1.14-3.77-4.25-3.84-3.95-.08-7.9,0-11.85,0-5.14,0-5.81.5-6,5.61-.18,6.15,0,12.32,0,18.48h0c0,6.32-.15,12.64,0,19,.14,4.7.8,5.17,5.31,5.2,4.11,0,8.22,0,12.33,0,3.45,0,4-.6,4.44-4.1a29.8,29.8,0,0,0,.17-3.78q0-16.12,0-32.24A31.91,31.91,0,0,0,303.36,882.11Zm-194.94,1c-.66-3.64-2-4.85-5.8-4.86-20.58,0-41.16,0-61.73-.07-2.43,0-2.94.94-2.88,3.08.12,4.27.19,8.56,0,12.82-.13,2.62.91,3.16,3.27,3.13,10.13-.1,20.26,0,30.39,0,10.29,0,20.58,0,30.87,0,4.14,0,5.29-1.06,6-5.07A26.29,26.29,0,0,0,108.42,883.13Zm0,0c-.66-3.64-2-4.85-5.8-4.86-20.58,0-41.16,0-61.73-.07-2.43,0-2.94.94-2.88,3.08.12,4.27.19,8.56,0,12.82-.13,2.62.91,3.16,3.27,3.13,10.13-.1,20.26,0,30.39,0,10.29,0,20.58,0,30.87,0,4.14,0,5.29-1.06,6-5.07A26.29,26.29,0,0,0,108.42,883.13Zm0,0c-.66-3.64-2-4.85-5.8-4.86-20.58,0-41.16,0-61.73-.07-2.43,0-2.94.94-2.88,3.08.12,4.27.19,8.56,0,12.82-.13,2.62.91,3.16,3.27,3.13,10.13-.1,20.26,0,30.39,0,10.29,0,20.58,0,30.87,0,4.14,0,5.29-1.06,6-5.07A26.29,26.29,0,0,0,108.42,883.13Z"/><path class="dab1e5f9-10c4-4446-b806-acf3be8d9387" d="M2,252.52c1.7,1.73,1,3.91,1,5.89q.07,57,0,114.07Q3,662.66,3,952.82c0,7.93-.94,7,7.15,7H1080c-.21.29.48,1-.48,1-1.27,0-2.53,0-3.8,0H1.92C.6,959.14,1,957.17,1,955.3Q1,606.64,1,258C1,256.14.47,254.14,2,252.52Z"/><path class="dab1e5f9-10c4-4446-b806-acf3be8d9387" d="M2,252.52c.07,4.12.19,8.23.19,12.34q0,285.75,0,571.51,0,59.61,0,119.24c0,1.73-.14,3.46-.22,5.19-.6-.39-2,.93-1.91-.95.06-1.11,0-2.22,0-3.33V249.67C1,250.37,1.35,251.55,2,252.52Z"/><path class="dab1e5f9-10c4-4446-b806-acf3be8d9387" d="M1033.45,903.13l-36.55,27.2c-1-3.54-1.25-48.84-.29-55.31Z"/><path class="dab1e5f9-10c4-4446-b806-acf3be8d9387" d="M303.36,882.11a31.91,31.91,0,0,1,.21,4.26q0,16.13,0,32.24a29.8,29.8,0,0,1-.17,3.78c-.43,3.5-1,4.05-4.44,4.1-4.11.06-8.22,0-12.33,0-4.51,0-5.17-.5-5.31-5.2-.19-6.32,0-12.64,0-19h0c0-6.16-.14-12.33,0-18.48.15-5.11.82-5.58,6-5.61,3.95,0,7.9-.06,11.85,0C302.22,878.34,302.94,879,303.36,882.11Z"/><path class="dab1e5f9-10c4-4446-b806-acf3be8d9387" d="M344.09,893.37c0,3,0,6,0,9,0,5.38,0,10.76,0,16.13a25,25,0,0,1-.26,4.25c-.57,3.15-1.19,3.68-4.37,3.73q-6.65.09-13.28,0c-3.22,0-3.82-.55-4.42-3.67a22.18,22.18,0,0,1-.31-4.24q0-16.14,0-32.26c0-.79,0-1.59.06-2.37.39-4.94,1.17-5.67,6-5.7,3.64,0,7.28,0,10.91,0,4.35,0,5.26.77,5.55,5.15C344.21,886.72,344.08,890.05,344.09,893.37Z"/><path class="dab1e5f9-10c4-4446-b806-acf3be8d9387" d="M891.1,917.47c-.05,6.95-2.13,9-9.15,9-7.29,0-14.57,0-21.86,0s-14.58,0-21.87,0c-3.68,0-3.75,0-3.75-3.52q0-20.67,0-41.35c0-3.3.08-3.36,3.44-3.37q21.86,0,43.73,0a16.9,16.9,0,0,1,4.69.59,5.72,5.72,0,0,1,4.6,5.36c.17,2,.17,4.12.18,6.17C891.12,899.41,891.16,908.44,891.1,917.47Z"/><path class="dab1e5f9-10c4-4446-b806-acf3be8d9387" d="M1033.45,903.13l-36.55,27.2c-1-3.54-1.25-48.84-.29-55.31Z"/><path class="dab1e5f9-10c4-4446-b806-acf3be8d9387" d="M344.09,893.37c0,3,0,6,0,9,0,5.38,0,10.76,0,16.13a25,25,0,0,1-.26,4.25c-.57,3.15-1.19,3.68-4.37,3.73q-6.65.09-13.28,0c-3.22,0-3.82-.55-4.42-3.67a22.18,22.18,0,0,1-.31-4.24q0-16.14,0-32.26c0-.79,0-1.59.06-2.37.39-4.94,1.17-5.67,6-5.7,3.64,0,7.28,0,10.91,0,4.35,0,5.26.77,5.55,5.15C344.21,886.72,344.08,890.05,344.09,893.37Z"/><path class="dab1e5f9-10c4-4446-b806-acf3be8d9387" d="M303.57,886.37q0,16.13,0,32.24a29.8,29.8,0,0,1-.17,3.78c-.43,3.5-1,4.05-4.44,4.1-4.11.06-8.22,0-12.33,0-4.51,0-5.17-.5-5.31-5.2-.19-6.32,0-12.64,0-19h0c0-6.16-.14-12.33,0-18.48.15-5.11.82-5.58,6-5.61,3.95,0,7.9-.06,11.85,0,3.11.07,3.83.75,4.25,3.84A31.91,31.91,0,0,1,303.57,886.37Z"/><path class="dab1e5f9-10c4-4446-b806-acf3be8d9387" d="M891.1,917.47c-.05,6.95-2.13,9-9.15,9-7.29,0-14.57,0-21.86,0s-14.58,0-21.87,0c-3.68,0-3.75,0-3.75-3.52q0-20.67,0-41.35c0-3.3.08-3.36,3.44-3.37q21.86,0,43.73,0a16.9,16.9,0,0,1,4.69.59,5.72,5.72,0,0,1,4.6,5.36c.17,2,.17,4.12.18,6.17C891.12,899.41,891.16,908.44,891.1,917.47Z"/><path class="dab1e5f9-10c4-4446-b806-acf3be8d9387" d="M108.49,892.11c-.68,4-1.83,5-6,5.07-10.29,0-20.58,0-30.87,0-10.13,0-20.26-.06-30.39,0-2.36,0-3.4-.51-3.27-3.13.21-4.26.14-8.55,0-12.82-.06-2.14.45-3.09,2.88-3.08,20.57.09,41.15,0,61.73.07,3.79,0,5.14,1.22,5.8,4.86A26.29,26.29,0,0,1,108.49,892.11Z"/><path class="dab1e5f9-10c4-4446-b806-acf3be8d9387" d="M649.39,523.66c-.24,23.15-5.72,44.89-18.61,64.31-19,28.58-44.82,47.38-78.88,54a136.27,136.27,0,0,1-26,2.25q-198.7,0-397.39,0c-7,0-6-.91-6,6q0,75.59,0,151.16c0,6.16.49,5.25-5.36,5.25q-35.41,0-70.83,0c-1.11,0-2.22,0-3.33,0s-1.69-.63-1.71-1.74c0-1.27,0-2.53,0-3.8q0-197.74,0-395.49c0-5.95-.73-5.23,5.37-5.23q220.08,0,440.17,0c1.7,0,3.46-.36,5.28.41-.26,1.11-1,1.21-1.5,1.49-31.28,17.4-53.53,42.56-65.54,76.45-.76,2.13-1.61,3.24-3.94,3a26.4,26.4,0,0,0-3.33,0H128.3c-6.55,0-5.76-.9-5.77,5.82q0,34.94,0,69.87c0,1.11,0,2.22,0,3.33-.06,1.46.71,2,2,1.93,1.11,0,2.22,0,3.33,0H527.64a57.32,57.32,0,0,0,16-1.94c11.83-3.39,19.41-11,22.53-22.85a59.21,59.21,0,0,0-.75-33.72,43.79,43.79,0,0,0-4.78-9.49,7.77,7.77,0,0,1,3.88-.45q38.74,0,77.48,0a11.36,11.36,0,0,0,1.43,0c2.28-.28,3.31.54,3.75,3A140.72,140.72,0,0,1,649.39,523.66Z"/><path class="dab1e5f9-10c4-4446-b806-acf3be8d9387" d="M1038.8,688.88c-1.13,63-49.56,105.54-92.74,114.54a152.39,152.39,0,0,1-31.12,3.25q-363.15,0-726.3,0c-.95,0-1.9,0-2.85,0-1.48.08-2-.7-1.92-2,0-.95,0-1.91,0-2.86V689.63c0-5.84-.45-5.14,5-5.14q35.66,0,71.3,0c.79,0,1.59.06,2.38,0,1.75-.14,2.5.49,2.62,2.38a72.16,72.16,0,0,0,1.48,11.77c3.38,14.36,12.48,22.64,26.78,25.49a60,60,0,0,0,11.81,1.06q305.64,0,611.27.12c19.68,0,40.75-16.06,41-40.11s-20.06-40.94-39.11-41H587.82c-.05-.32-.09-.64-.14-1a137.12,137.12,0,0,0,26.44-17.56c19-16.19,33.07-35.71,40.87-59.51.93-2.84,2.21-3.55,5-3.55,85.56.07,171.12-.2,256.68.16,49,.21,85.21,23.05,108.92,65.58C1036,647.05,1039.18,667.61,1038.8,688.88Z"/><path class="dab1e5f9-10c4-4446-b806-acf3be8d9387" d="M1038.8,402.87c-.07.94,0,1.9,0,2.85V516.93c0,.63,0,1.27,0,1.9-.07,3.53-.07,3.58-3.69,3.59H961.43c-3.66,0-3.64,0-4-3.88a80.69,80.69,0,0,0-1.2-9.41c-3.36-15-12.88-24.07-28-26.5a70.54,70.54,0,0,0-11.34-.94c-121.51,0-243,.19-364.53-.12-26.26-.07-50,26.5-38.36,56,1.74,4.41,4.52,8.21,8.16,12.55-29.21,0-57.25,0-85.29.06-2.64,0-3.4-1-3.87-3.43C422.12,489.12,449.27,440,495.42,414c16.87-9.5,35.36-13.57,54.7-13.57q241.92,0,483.82,0c.79,0,1.59.07,2.37,0C1038.16,400.23,1038.94,401,1038.8,402.87Z"/><path class="dab1e5f9-10c4-4446-b806-acf3be8d9387" d="M700.94,78.51c10.26-2.42,20.09-4.72,29.91-7.07A3.74,3.74,0,0,1,735.32,73q17.38,23.17,34.91,46.25a6.43,6.43,0,0,1,.49,1.21c-3.27,1.46-6.84,1.83-10.26,2.66-6.61,1.6-13.27,3-19.85,4.67-1.8.46-2.87.28-4-1.25q-17.43-23.14-34.94-46.22A9.72,9.72,0,0,1,700.94,78.51Z"/><path class="dab1e5f9-10c4-4446-b806-acf3be8d9387" d="M273.27,178.33c10.39-2.45,20.06-4.73,29.73-7,2.07-.49,3.71-.64,5.32,1.52,11.44,15.34,23.05,30.55,34.59,45.81a11.2,11.2,0,0,1,.82,1.67c-7,1.66-13.79,3.31-20.61,4.92-3.38.79-6.8,1.42-10.16,2.32a2.64,2.64,0,0,1-3.25-1C297.72,210.63,285.71,194.76,273.27,178.33Z"/><path class="dab1e5f9-10c4-4446-b806-acf3be8d9387" d="M405.19,206c-10.8,2.5-21,4.74-31.05,7.27-2.36.59-3.11-.67-4.15-2q-12.74-16.81-25.46-33.65c-2.67-3.52-5.38-7-8-10.58-.63-.85-1.64-1.56-1.4-3.16,10-2.33,20.09-4.66,30.19-7a3.09,3.09,0,0,1,3.65,1.29C380.82,173.89,392.75,189.61,405.19,206Z"/><path class="dab1e5f9-10c4-4446-b806-acf3be8d9387" d="M884.17,35.75l22.41-5.28c.16,0,.32,0,.47-.08,3.25-.54,6.78-3,9.57-1.55s4.3,4.86,6.3,7.49Q937,54.83,951,73.37c1,1.36,2.37,2.55,2.85,4.57-10.32,2.43-20.61,4.8-30.87,7.32-2.16.53-2.82-.94-3.73-2.13-4.7-6.15-9.35-12.34-14-18.52q-9.44-12.48-18.87-25C885.52,38.57,884.28,37.69,884.17,35.75Z"/><path class="dab1e5f9-10c4-4446-b806-acf3be8d9387" d="M517.48,121.33c10.46-2.47,20.27-4.76,30.07-7.11,2-.49,3.45-.21,4.85,1.65C564,131.31,575.63,146.66,587.26,162a6.18,6.18,0,0,1,.43,1.31c-5.47,1.31-10.9,2.64-16.34,3.92-4.77,1.12-9.56,2.11-14.3,3.33-1.47.37-2.42.18-3.23-1.06-.43-.66-1-1.25-1.44-1.88l-31.76-42C519.68,124.45,518.8,123.16,517.48,121.33Z"/><path class="dab1e5f9-10c4-4446-b806-acf3be8d9387" d="M944.51,21.69c8-1.91,15.33-3.77,22.7-5.34,3.52-.75,7.38-3.23,10.48-1.72,2.81,1.37,4.49,5.13,6.58,7.89q14.06,18.5,28.05,37c.85,1.13,1.67,2.28,2.46,3.35-.43,1.28-1.53,1.2-2.31,1.39-9.22,2.18-18.46,4.23-27.66,6.46-1.74.42-2.87.45-4.06-1.13C968.88,53.84,957,38.12,944.51,21.69Z"/><path class="dab1e5f9-10c4-4446-b806-acf3be8d9387" d="M893.05,92.12c-10.66,2.51-21,4.93-31.25,7.39a2.17,2.17,0,0,1-2.52-.74L858.7,98,823.24,51c-.08-.11,0-.29-.08-.52,1-1.49,2.83-1.11,4.26-1.47,8.29-2.07,16.62-3.93,24.92-5.95,2.2-.53,3.73-.35,5.26,1.71C869,60,880.49,75.11,892,90.27,892.23,90.64,892.43,91.06,893.05,92.12Z"/><path class="dab1e5f9-10c4-4446-b806-acf3be8d9387" d="M27.93,236a7.59,7.59,0,0,1,1.63-.83c9.54-2.25,19.1-4.44,28.63-6.73,1.81-.44,2.88.1,4,1.57C74,245.65,85.84,261.27,97.6,276.81c-.36,1.42-1.46,1.37-2.29,1.56-9.08,2.14-18.19,4.15-27.25,6.37-2.1.51-3.4.39-4.82-1.51C51.66,267.76,40,252.4,28.31,237A4.41,4.41,0,0,1,27.93,236Z"/><path class="dab1e5f9-10c4-4446-b806-acf3be8d9387" d="M152,206.6c10.06-2.33,20.19-4.61,30.27-7.08,2.26-.55,3.13.71,4.19,2.11q12.6,16.68,25.23,33.33l10.2,13.49c-3.8,1.53-7.35,2-10.8,2.83-6.62,1.55-13.25,3.05-19.85,4.66-1.54.38-2.61.34-3.67-1.07q-17.69-23.55-35.45-47C152,207.64,152.05,207.25,152,206.6Z"/><path class="dab1e5f9-10c4-4446-b806-acf3be8d9387" d="M457.2,135.4c9.7-2.29,19.39-4.56,29.06-6.89,2.17-.52,3.71-.3,5.25,1.76,11.36,15.22,22.87,30.33,34.33,45.48a10.08,10.08,0,0,1,.7,1.28c-.56,1.27-1.86,1.08-2.79,1.31-8.91,2.13-17.88,4.07-26.77,6.29-2.16.53-3.41.29-4.79-1.56q-17.08-22.8-34.34-45.47A2.36,2.36,0,0,1,457.2,135.4Z"/><path class="dab1e5f9-10c4-4446-b806-acf3be8d9387" d="M709.76,134.94c-10.4,2.42-20.55,4.75-30.67,7.19a2.69,2.69,0,0,1-3.24-1.06q-18-23.8-36-47.52c.87-1.67,2.34-1.28,3.47-1.56,8.58-2.09,17.19-4.09,25.78-6.15,2.09-.5,3.7-.62,5.31,1.54,11.51,15.47,23.2,30.8,34.82,46.18A6.17,6.17,0,0,1,709.76,134.94Z"/><path class="dab1e5f9-10c4-4446-b806-acf3be8d9387" d="M761.43,64.4c9.53-2.24,18.23-4.39,27-6.32,7.62-1.69,5.34-2.6,10.29,3.87,10.09,13.21,20.09,26.49,30.12,39.74,1,1.36,2,2.78,3.18,4.43-5.07,1.81-10,2.54-14.9,3.76-5.21,1.32-10.49,2.34-15.69,3.69-1.65.42-2.62.2-3.64-1.15C785.87,96.64,773.92,80.89,761.43,64.4Z"/><path class="dab1e5f9-10c4-4446-b806-acf3be8d9387" d="M89.87,221.14c10.12-2.4,19.82-4.65,29.49-7,2.28-.55,3.7-.06,5.18,1.92,11.18,15,22.51,29.81,33.77,44.71a3.32,3.32,0,0,1,1.12,2.17c-1.58,1.33-3.69,1.26-5.61,1.72-8.15,1.93-16.33,3.73-24.45,5.79a3.24,3.24,0,0,1-4-1.42Q108,245.88,90.47,222.79A7.41,7.41,0,0,1,89.87,221.14Z"/><path class="dab1e5f9-10c4-4446-b806-acf3be8d9387" d="M282.51,234.66c-10.1,2.34-20.11,4.61-30.08,7-1.74.42-2.86.29-4-1.26q-17.62-23.52-35.37-47c-.09-.11-.07-.29-.18-.78,2.43-1.27,5.25-1.44,7.89-2.11,7-1.77,14.12-3.38,21.2-5,1.79-.41,3.47-1,5,1.1,11.71,15.71,23.55,31.32,35.34,47A4.63,4.63,0,0,1,282.51,234.66Z"/><path class="dab1e5f9-10c4-4446-b806-acf3be8d9387" d="M649.16,149c-7.18,1.71-13.87,3.32-20.57,4.9-3.38.8-6.81,1.43-10.16,2.33-1.55.42-2.62.41-3.67-1Q597,131.54,579.13,107.88c-.08-.1,0-.29-.1-.88l21.33-5.1c2.61-.62,5.26-1.11,7.83-1.86s4-.11,5.6,2c9.34,12.56,18.84,25,28.28,37.49C644.34,142.55,646.59,145.59,649.16,149Z"/><path class="dab1e5f9-10c4-4446-b806-acf3be8d9387" d="M466.07,191.83c-10.73,2.48-20.75,4.75-30.74,7.15-1.57.38-2.6.36-3.66-1q-17.69-23.53-35.44-47c-.15-.2-.05-.59-.09-1.26,8.5-2,17.16-3.66,25.57-6.16,5.25-1.56,8.12-.25,11.27,4.15,9.7,13.5,19.94,26.6,30,39.86C463.88,188.74,464.77,190,466.07,191.83Z"/><path class="dab1e5f9-10c4-4446-b806-acf3be8d9387" d="M1052,54.7c-8.72,3-8.73,3-13.89-3.8q-14.92-19.69-29.82-39.4c-.86-1.13-1.68-2.28-2.49-3.38.8-1.5,2.21-1.26,3.38-1.53Q1022.1,3.53,1035,.5c3.94-.92,4-.94,5,3.19C1044,20.62,1048,37.56,1052,54.7Z"/></g></g></svg>